<svg height="478" width="720" xmlns="http://www.w3.org/2000/svg">
<rect height="478" fill="#555" width="720"></rect>
<text fill="#7f7" font-family="Courier New" font-size="12" xml:space="preserve">
<tspan x="10" y="26">4 megabytes installed</tspan>
<tspan x="10" y="42"></tspan>
<tspan x="10" y="58">node_modules</tspan>
<tspan x="10" y="74">└─┬ git-changelog@1.1.2 </tspan>
<tspan x="10" y="90">  ├── colors@1.1.2 </tspan>
<tspan x="10" y="106">  ├─┬ commander@2.9.0 </tspan>
<tspan x="10" y="122">  │ └── graceful-readlink@1.0.1 </tspan>
<tspan x="10" y="138">  ├─┬ debug@2.6.4 </tspan>
<tspan x="10" y="154">  │ └── ms@0.7.3 </tspan>
<tspan x="10" y="170">  ├─┬ fs-extra@0.18.4 </tspan>
<tspan x="10" y="186">  │ ├─┬ graceful-fs@3.0.11 </tspan>
<tspan x="10" y="202">  │ │ └── natives@1.1.0 </tspan>
<tspan x="10" y="218">  │ ├─┬ jsonfile@2.4.0 </tspan>
<tspan x="10" y="234">  │ │ └── graceful-fs@4.1.11 </tspan>
<tspan x="10" y="250">  │ └─┬ rimraf@2.6.1 </tspan>
<tspan x="10" y="266">  │   └─┬ glob@7.1.1 </tspan>
<tspan x="10" y="282">  │     ├── fs.realpath@1.0.0 </tspan>
<tspan x="10" y="298">  │     ├─┬ inflight@1.0.6 </tspan>
<tspan x="10" y="314">  │     │ └── wrappy@1.0.2 </tspan>
<tspan x="10" y="330">  │     ├── inherits@2.0.3 </tspan>
<tspan x="10" y="346">  │     ├─┬ minimatch@3.0.3 </tspan>
<tspan x="10" y="362">  │     │ └─┬ brace-expansion@1.1.7 </tspan>
<tspan x="10" y="378">  │     │   ├── balanced-match@0.4.2 </tspan>
<tspan x="10" y="394">  │     │   └── concat-map@0.0.1 </tspan>
<tspan x="10" y="410">  │     ├── once@1.4.0 </tspan>
<tspan x="10" y="426">  │     └── path-is-absolute@1.0.1 </tspan>
<tspan x="10" y="442">  ├── lodash@3.10.1 </tspan>
<tspan x="10" y="458">  └── q@1.5.0</tspan>
</text>
</svg>
